<svg id="visual" viewBox="0 0 900 900" width="900" height="900" xmlns="http://www.w3.org/2000/svg" xmlns:xlink="http://www.w3.org/1999/xlink" version="1.1">
	<g transform="translate(473.195729244199 415.58690161192544)">
		<path d="M123.4 -216.2C171.7 -185.7 230.9 -176.6 259.2 -144.1C287.4 -111.7 284.7 -55.8 282.5 -1.3C280.4 53.3 278.8 106.7 251.2 140.3C223.6 173.9 170 187.9 123.9 232.4C77.7 276.9 38.8 351.9 -18.1 383.2C-75 414.6 -150 402.1 -183.2 350.1C-216.4 298.1 -207.8 206.6 -216.3 141.6C-224.8 76.7 -250.4 38.3 -279.6 -16.8C-308.7 -72 -341.4 -144 -326.4 -197.7C-311.4 -251.4 -248.7 -286.8 -186.4 -309.1C-124 -331.4 -62 -340.7 -12.2 -319.5C37.5 -298.3 75 -246.6 123.4 -216.2" fill="#34d399">
		</path>
	</g>
</svg>
