<svg id="visual" viewBox="0 0 900 900" width="900" height="900" xmlns="http://www.w3.org/2000/svg" xmlns:xlink="http://www.w3.org/1999/xlink" version="1.1">
	<g transform="translate(443.31132007151956 446.95405391019574)">
		<path d="M255.8 -412.3C324 -403.6 366.8 -320 374.8 -238.9C382.8 -157.7 355.9 -78.8 340.7 -8.8C325.6 61.3 322.1 122.7 291.6 164.8C261.1 207 203.6 229.9 150.4 258.8C97.3 287.6 48.7 322.3 -21.2 359C-91 395.6 -182 434.2 -248.8 413.3C-315.7 392.4 -358.3 311.9 -359.7 233.1C-361.1 154.3 -321.2 77.2 -323.5 -1.3C-325.8 -79.8 -370.3 -159.7 -361.8 -226.2C-353.4 -292.7 -291.9 -346 -222.8 -354.2C-153.7 -362.5 -76.8 -325.7 8.5 -340.4C93.7 -355 187.5 -421.1 255.8 -412.3" fill="#14b8a6">
		</path>
	</g>
</svg>
