<svg xmlns="http://www.w3.org/2000/svg" viewBox="0 0 150.48379 150.48479"><title>loyalty-points</title><circle cx="77.38666" cy="77.38684" r="73.09767" style="opacity:0.1"/><circle cx="73.0977" cy="73.09788" r="73.09767" style="fill:#fc0"/><path d="M129.02413,26.04727A73.09375,73.09375,0,0,0,4.1174,97.29157Q65.94787,60.58688,129.02413,26.04727Z" style="fill:#fcdc59"/><path d="M81.54909,145.69431A72.86838,72.86838,0,0,0,124.70958,124.858c-11.41463,5.48629-22.8,11.03492-34.19772,16.54909C87.53119,142.84916,84.53492,144.26194,81.54909,145.69431Z" style="fill:#fcdc59"/><circle cx="71.93986" cy="71.94022" r="55.56938" style="fill:#da8100"/><circle cx="74.25533" cy="74.25568" r="54.82324" style="fill:#f0aa00"/><path d="M73.43752,29.4821a32.77861,32.77861,0,0,1,12.83832,2.66112,37.217,37.217,0,0,1,11.35847,7.51252A31.7531,31.7531,0,0,1,105.043,50.46783a33.787,33.787,0,0,1,2.56908,13.0885,32.54819,32.54819,0,0,1-2.66821,13.1357,34.07224,34.07224,0,0,1-7.30955,10.71887,35.0201,35.0201,0,0,1-10.81562,7.2588,34.22722,34.22722,0,0,1-26.46967,0,35.00629,35.00629,0,0,1-10.81562-7.2588,34.03167,34.03167,0,0,1-7.30955-10.76606,34.08246,34.08246,0,0,1,0-26.42246A33.85842,33.85842,0,0,1,60.24872,32.14322a32.92436,32.92436,0,0,1,13.1888-2.66112M73.683,44.493a18.03967,18.03967,0,0,0-7.33906,1.53061,19.13931,19.13931,0,0,0-10.1465,10.14061,18.09143,18.09143,0,0,0-1.52706,7.339,18.61934,18.61934,0,0,0,5.56536,13.30091,19.51913,19.51913,0,0,0,6.05864,4.03949,18.57309,18.57309,0,0,0,7.38861,1.4763,18.2,18.2,0,0,0,7.33668-1.4763A19.07173,19.07173,0,0,0,91.01985,70.84346a18.20951,18.20951,0,0,0,1.47749-7.34023,18.56088,18.56088,0,0,0-1.47749-7.38507,18.9695,18.9695,0,0,0-4.0383-6.00909,19.639,19.639,0,0,0-6.0079-4.0855A17.73029,17.73029,0,0,0,73.683,44.493" style="fill:#ea9c00"/><path d="M72.46109,28.52646a32.77861,32.77861,0,0,1,12.83832,2.66112,37.217,37.217,0,0,1,11.35847,7.51252,31.7531,31.7531,0,0,1,7.40867,10.81209,33.787,33.787,0,0,1,2.56908,13.0885,32.54819,32.54819,0,0,1-2.66821,13.1357,34.07224,34.07224,0,0,1-7.30955,10.71887,35.0201,35.0201,0,0,1-10.81562,7.2588,34.22722,34.22722,0,0,1-26.46967,0A35.00629,35.00629,0,0,1,48.557,86.45525a34.03167,34.03167,0,0,1-7.30955-10.76606,34.08246,34.08246,0,0,1,0-26.42246A33.85842,33.85842,0,0,1,59.27229,31.18757a32.92436,32.92436,0,0,1,13.1888-2.66112m.24547,15.01087a18.03967,18.03967,0,0,0-7.33906,1.53061A19.13931,19.13931,0,0,0,55.221,55.20854a18.09143,18.09143,0,0,0-1.52706,7.339,18.61934,18.61934,0,0,0,5.56536,13.30091A19.51913,19.51913,0,0,0,65.31795,79.888a18.57309,18.57309,0,0,0,7.38861,1.4763,18.2,18.2,0,0,0,7.33668-1.4763A19.07173,19.07173,0,0,0,90.04342,69.88781a18.20951,18.20951,0,0,0,1.47749-7.34023,18.56088,18.56088,0,0,0-1.47749-7.38507,18.9695,18.9695,0,0,0-4.0383-6.00909,19.639,19.639,0,0,0-6.0079-4.0855,17.73029,17.73029,0,0,0-7.29066-1.53061" style="fill:#fc0"/><path d="M102.11033,103.92273a4.93424,4.93424,0,0,1-1.46924,6.97912,49.066,49.066,0,0,1-27.03612,7.935,50.15734,50.15734,0,0,1-27.18361-7.935,5.02851,5.02851,0,0,1-1.39606-6.97912,4.94269,4.94269,0,0,1,6.90594-1.54357A39.6908,39.6908,0,0,0,73.605,108.69742a39.2709,39.2709,0,0,0,21.5994-6.31826,5.14276,5.14276,0,0,1,6.906,1.54357" style="fill:#ea9c00"/><path d="M101.13389,102.96708a4.93424,4.93424,0,0,1-1.46924,6.97912,49.066,49.066,0,0,1-27.03612,7.935,50.15734,50.15734,0,0,1-27.18361-7.935,5.02851,5.02851,0,0,1-1.39606-6.97912,4.94269,4.94269,0,0,1,6.90594-1.54357,39.6908,39.6908,0,0,0,21.67373,6.31826,39.2709,39.2709,0,0,0,21.5994-6.31826,5.14276,5.14276,0,0,1,6.906,1.54357" style="fill:#fc0"/></svg>